<?xml version="1.0" encoding="UTF-8" standalone="no"?>
<!-- Created with Inkscape (http://www.inkscape.org/) -->

<svg
   width="46.302082mm"
   height="35.71875mm"
   viewBox="0 0 46.302082 35.71875"
   version="1.1"
   id="svg1"
   xml:space="preserve"
   inkscape:version="1.3 (0e150ed6c4, 2023-07-21)"
   sodipodi:docname="CocoSol_logo.svg"
   xmlns:inkscape="http://www.inkscape.org/namespaces/inkscape"
   xmlns:sodipodi="http://sodipodi.sourceforge.net/DTD/sodipodi-0.dtd"
   xmlns:xlink="http://www.w3.org/1999/xlink"
   xmlns="http://www.w3.org/2000/svg"
   xmlns:svg="http://www.w3.org/2000/svg"><sodipodi:namedview
     id="namedview1"
     pagecolor="#ffffff"
     bordercolor="#000000"
     borderopacity="0.25"
     inkscape:showpageshadow="2"
     inkscape:pageopacity="0.0"
     inkscape:pagecheckerboard="0"
     inkscape:deskcolor="#d1d1d1"
     inkscape:document-units="mm"
     inkscape:zoom="1.4485269"
     inkscape:cx="302.72133"
     inkscape:cy="444.24441"
     inkscape:window-width="1920"
     inkscape:window-height="1009"
     inkscape:window-x="-8"
     inkscape:window-y="-8"
     inkscape:window-maximized="1"
     inkscape:current-layer="layer2" /><defs
     id="defs1"><inkscape:path-effect
       effect="bspline"
       id="path-effect37"
       is_visible="true"
       lpeversion="1.3"
       weight="33.333333"
       steps="2"
       helper_size="0"
       apply_no_weight="true"
       apply_with_weight="true"
       only_selected="false"
       uniform="false" /><linearGradient
       id="linearGradient29"
       inkscape:collect="always"><stop
         style="stop-color:#0047cf;stop-opacity:1;"
         offset="0"
         id="stop30" /><stop
         style="stop-color:#4c34db;stop-opacity:1;"
         offset="0.2638889"
         id="stop35" /><stop
         style="stop-color:#7138d4;stop-opacity:1;"
         offset="0.61226857"
         id="stop34" /><stop
         style="stop-color:#4130e0;stop-opacity:1;"
         offset="0.93518513"
         id="stop36" /><stop
         style="stop-color:#0047cf;stop-opacity:1;"
         offset="0.99305552"
         id="stop33" /></linearGradient><inkscape:path-effect
       effect="fillet_chamfer"
       id="path-effect24"
       is_visible="true"
       lpeversion="1"
       nodesatellites_param="F,0,0,1,0,0,0,1 @ F,0,0,1,0,2.3597216,0,1 @ F,0,0,1,0,4.9070394,0,1 @ F,0,0,1,0,4.9070394,0,1 @ F,0,0,1,0,4.0750121,0,1 @ F,0,0,1,0,6.4874217,0,1 @ F,0,0,1,0,0,0,1 | F,0,0,1,0,0,0,1 @ F,0,0,1,0,3.3356978,0,1 @ F,0,0,1,0,4.03012,0,1 @ F,0,0,1,0,5.224406,0,1 @ F,0,0,1,0,2.4365988,0,1 @ F,0,0,1,0,3.7366054,0,1 @ F,0,0,1,0,0,0,1 | F,0,0,1,0,0,0,1 @ F,0,0,1,0,2.8198327,0,1 @ F,0,0,1,0,4.8846178,0,1 @ F,0,0,1,0,3.6971194,0,1 @ F,0,0,1,0,4.4931722,0,1 @ F,0,0,1,0,2.6801583,0,1 @ F,0,0,1,0,0,0,1 | F,0,0,1,0,0,0,1 @ F,0,0,1,0,3.7735837,0,1 @ F,0,0,1,0,4.5814406,0,1 @ F,0,0,1,0,4.129192,0,1 @ F,0,0,1,0,3.438842,0,1 @ F,0,0,1,0,3.4237331,0,1 @ F,0,0,1,0,0,0,1"
       radius="0"
       unit="px"
       method="auto"
       mode="F"
       chamfer_steps="1"
       flexible="false"
       use_knot_distance="true"
       apply_no_radius="true"
       apply_with_radius="true"
       only_selected="false"
       hide_knots="false" /><linearGradient
       inkscape:collect="always"
       xlink:href="#linearGradient29"
       id="linearGradient31"
       x1="49.248608"
       y1="108.25957"
       x2="88.619728"
       y2="108.25957"
       gradientUnits="userSpaceOnUse"
       spreadMethod="pad" /></defs><g
     inkscape:label="Calque 1"
     inkscape:groupmode="layer"
     id="layer1"
     style="display:inline"><g
       id="use7"
       style="stroke:#6811fb;stroke-opacity:1"
       transform="matrix(1,0,0,-1,-50.416056,126.65967)"><path
         style="display:inline;fill:none;fill-opacity:1;fill-rule:evenodd;stroke:#0047cf;stroke-width:1.9;stroke-linecap:butt;stroke-linejoin:round;stroke-dasharray:none;stroke-dashoffset:0;stroke-opacity:1"
         d="m 55.796203,97.191303 c -0.985747,1.137806 -1.971494,2.275612 -2.890653,4.270757 -0.91916,1.99515 -1.771734,4.84764 -1.652663,7.72871 0.119071,2.88106 1.209787,5.7907 2.198908,7.70258 0.989121,1.91188 1.876649,2.826 2.764172,3.74011"
         id="path36"
         inkscape:path-effect="#path-effect37"
         inkscape:original-d="m 55.796203,97.191303 c -0.985746,1.137806 -1.971493,2.275612 -2.95724,3.413417 -0.852574,2.85249 -1.705147,5.70498 -2.55772,8.55747 1.090716,2.90964 2.181431,5.81928 3.27215,8.72893 0.887525,0.91411 1.775049,1.82823 2.662574,2.74234"
         sodipodi:nodetypes="ccccc"
         transform="matrix(1,0,0,-1,0.58398042,217.25746)" /><path
         id="path23"
         style="fill:none;fill-opacity:1;stroke:url(#linearGradient31);stroke-width:6.6;stroke-linecap:butt;stroke-linejoin:round;stroke-dasharray:none;stroke-dashoffset:0;stroke-opacity:1"
         transform="matrix(0.8045683,0,0,1.0009559,12.263427,0.26997962)"
         d="m 84.116031,99.549908 -2.853033,-1.926373 a 19.16172,19.16172 27.006802 0 0 -4.173275,-2.127014 21.434337,21.434337 7.0424637 0 0 -8.788535,-1.085709 21.030871,21.030871 162.95234 0 0 -8.38119,2.570011 11.997255,11.997255 132.84131 0 0 -3.946315,4.255477 15.656267,15.656267 100.60613 0 0 -1.57997,8.4375 l -0.01016,0.25662 M 86.439186,99.724104 86.271212,99.576231 A 18.649854,18.649854 31.217947 0 0 80.654948,96.172496 L 79.001331,95.53517 A 22.154358,22.154358 10.767308 0 0 71.21085,94.053663 l -1.364852,-0.01089 a 23.976068,23.976068 168.16467 0 0 -9.992214,2.093914 l -0.816365,0.365656 a 10.542296,10.542296 142.85799 0 0 -3.784852,2.866825 l -0.247428,0.29651 a 10.459008,10.459008 110.1841 0 0 -2.428227,6.605386 l -0.02844,3.10861 m 31.571005,7.58096 -2.471707,1.6689 a 22.897879,22.897879 152.99319 0 1 -4.987002,2.54176 20.297074,20.297074 173.63279 0 1 -8.333764,0.92995 l -0.378765,-0.0255 a 17.349514,17.349514 15.886017 0 1 -6.955664,-1.97954 15.22876,15.22876 44.551257 0 1 -5.249821,-5.16823 8.1167872,8.1167872 74.424774 0 1 -1.194932,-4.28692 l -0.160826,-4.0609 m 32.055636,10.20631 a 20.499729,20.499729 149.0812 0 1 -6.192828,3.70909 l -0.730591,0.28158 a 25.185367,25.185367 169.23259 0 1 -8.85622,1.68419 l -1.908729,0.0152 a 18.949708,18.949708 11.835215 0 1 -7.897504,-1.65494 l -0.901213,-0.40366 a 14.878625,14.878625 37.142004 0 1 -5.341669,-4.04604 9.160201,9.160201 70.76414 0 1 -2.030658,-5.81952 l -0.0313,-3.42147"
         inkscape:original-d="m 84.116031,99.549908 -4.808702,-3.246845 -6.110213,-2.222282 -8.941071,0.602711 -5.99834,3.17805 -3.607269,5.329918 -0.266886,6.73896 M 86.439186,99.724104 83.767475,97.372103 75.240842,94.08583 64.621758,94.00107 l -7.808064,3.497293 -4.202595,5.036247 -0.06263,6.84506 m 31.571005,7.58096 -4.808702,3.24685 -6.110213,2.22228 -8.941071,-0.60271 -5.99834,-3.17805 -3.607269,-5.32992 -0.266886,-6.73896 m 32.055636,10.20631 -2.671711,2.35201 -8.526633,3.28627 -10.619084,0.0848 -7.808064,-3.49729 -4.202595,-5.03625 -0.06263,-6.84506"
         inkscape:path-effect="#path-effect24" /></g><rect
       style="fill:#ffffff;fill-opacity:1;stroke:none;stroke-width:6.6;stroke-linecap:butt;stroke-linejoin:round;stroke-dasharray:none;stroke-dashoffset:0;stroke-opacity:1"
       id="rect7"
       width="10.228786"
       x="-0.96891344"
       y="34.124329"
       ry="0"
       height="16.25646"
       transform="rotate(-50.091158)" /><rect
       style="fill:#ffffff;fill-opacity:1;stroke:none;stroke-width:6.6;stroke-linecap:butt;stroke-linejoin:round;stroke-dasharray:none;stroke-dashoffset:0;stroke-opacity:1"
       id="rect7-6"
       width="10.228786"
       x="26.696823"
       y="9.9226828"
       ry="0"
       height="16.25646"
       transform="matrix(0.64156801,0.76706615,0.76706615,-0.64156801,0,0)" /></g><g
     inkscape:groupmode="layer"
     id="layer3"
     inkscape:label="Calque 3"
     style="display:inline"><circle
       style="fill:#6811fb;fill-opacity:1;stroke:none;stroke-width:6.6;stroke-linecap:butt;stroke-linejoin:round;stroke-dasharray:none;stroke-dashoffset:0;stroke-opacity:1"
       id="path7"
       cx="35.127186"
       cy="2.6371019"
       r="1.1530212" /><circle
       style="fill:#6811fb;fill-opacity:1;stroke:none;stroke-width:6.6;stroke-linecap:butt;stroke-linejoin:round;stroke-dasharray:none;stroke-dashoffset:0;stroke-opacity:1"
       id="path7-8"
       cx="24.774694"
       cy="12.499079"
       r="1.1530212" /><circle
       style="fill:#6811fb;fill-opacity:1;stroke:none;stroke-width:6.6;stroke-linecap:butt;stroke-linejoin:round;stroke-dasharray:none;stroke-dashoffset:0;stroke-opacity:1"
       id="path7-87"
       cx="27.910765"
       cy="14.692274"
       r="1.1530212" /><circle
       style="fill:#6811fb;fill-opacity:1;stroke:none;stroke-width:6.6;stroke-linecap:butt;stroke-linejoin:round;stroke-dasharray:none;stroke-dashoffset:0;stroke-opacity:1"
       id="path7-7"
       cx="38.833912"
       cy="12.860338"
       r="1.1530212" /><circle
       style="fill:#6811fb;fill-opacity:1;stroke:none;stroke-width:6.6;stroke-linecap:butt;stroke-linejoin:round;stroke-dasharray:none;stroke-dashoffset:0;stroke-opacity:1"
       id="path7-0"
       cx="39.009838"
       cy="18.501219"
       r="1.1530212" /><circle
       style="fill:#6811fb;fill-opacity:1;stroke:none;stroke-width:6.6;stroke-linecap:butt;stroke-linejoin:round;stroke-dasharray:none;stroke-dashoffset:0;stroke-opacity:1"
       id="path7-77"
       cx="32.589985"
       cy="16.395269"
       r="1.1530212" /><circle
       style="fill:#6811fb;fill-opacity:1;stroke:none;stroke-width:6.6;stroke-linecap:butt;stroke-linejoin:round;stroke-dasharray:none;stroke-dashoffset:0;stroke-opacity:1"
       id="path7-3"
       cx="29.326353"
       cy="19.343313"
       r="1.1530212" /><circle
       style="fill:#6811fb;fill-opacity:1;stroke:none;stroke-width:6.6;stroke-linecap:butt;stroke-linejoin:round;stroke-dasharray:none;stroke-dashoffset:0;stroke-opacity:1"
       id="path7-00"
       cx="15.602919"
       cy="19.05052"
       r="1.1530212" /><circle
       style="fill:#6811fb;fill-opacity:1;stroke:none;stroke-width:6.6;stroke-linecap:butt;stroke-linejoin:round;stroke-dasharray:none;stroke-dashoffset:0;stroke-opacity:1"
       id="path7-79"
       cx="24.907675"
       cy="22.749319"
       r="1.1530212" /><circle
       style="fill:#6811fb;fill-opacity:1;stroke:none;stroke-width:6.6;stroke-linecap:butt;stroke-linejoin:round;stroke-dasharray:none;stroke-dashoffset:0;stroke-opacity:1"
       id="path7-9"
       cx="35.470882"
       cy="25.282331"
       r="1.1530212" /><circle
       style="fill:#6811fb;fill-opacity:1;stroke:none;stroke-width:6.6;stroke-linecap:butt;stroke-linejoin:round;stroke-dasharray:none;stroke-dashoffset:0;stroke-opacity:1"
       id="path7-39"
       cx="15.350409"
       cy="23.398008"
       r="1.1530212" /><path
       style="fill:none;fill-opacity:1;stroke:#6811fb;stroke-width:0.799999;stroke-linecap:butt;stroke-linejoin:round;stroke-dasharray:none;stroke-dashoffset:0;stroke-opacity:1"
       d="m 35.52675,24.681504 -1.895064,-1.94073 -17.877536,0.13699"
       id="path9" /><path
       style="fill:none;fill-opacity:1;stroke:#6811fb;stroke-width:0.799999;stroke-linecap:butt;stroke-linejoin:round;stroke-dasharray:none;stroke-dashoffset:0;stroke-opacity:1"
       d="m 15.982469,19.224634 5.274218,0.0228 2.785514,-2.78552 0.616469,-0.52514 0.547971,-0.38814 0.66213,-0.27399 1.164436,-0.25115"
       id="path10" /><path
       style="fill:none;fill-opacity:1;stroke:#6811fb;stroke-width:0.799999;stroke-linecap:butt;stroke-linejoin:round;stroke-dasharray:none;stroke-dashoffset:0;stroke-opacity:1"
       d="M 32.60424,16.461944 Z"
       id="path11" /><path
       style="fill:none;fill-opacity:1;stroke:#6811fb;stroke-width:0.799999;stroke-linecap:butt;stroke-linejoin:round;stroke-dasharray:none;stroke-dashoffset:0;stroke-opacity:1"
       d="m 29.750227,19.041974 2.60286,-2.30604"
       id="path12" /><path
       style="fill:none;fill-opacity:1;stroke:#6811fb;stroke-width:0.799999;stroke-linecap:butt;stroke-linejoin:round;stroke-dasharray:none;stroke-dashoffset:0;stroke-opacity:1"
       d="m 33.357702,16.461944 2.191879,1.89507 3.424817,0.0913"
       id="path13" /><path
       style="fill:none;fill-opacity:1;stroke:#6811fb;stroke-width:0.799999;stroke-linecap:butt;stroke-linejoin:round;stroke-dasharray:none;stroke-dashoffset:0;stroke-opacity:1"
       d="m 35.024444,3.2649886 v 7.2834454 l -1.598247,1.80373 -8.630536,0.0457"
       id="path14" /></g></svg>
